HIERARCHY
ROOT Pelvis
{
	OFFSET 0.000000 0.000000 0.000000
	CHANNELS 6 Xposition Yposition Zposition Xrotation Yrotation Zrotation
	JOINT LeftUpLeg_virtual
	{
		OFFSET 0.000000 0.000000 0.000000
		CHANNELS 3 Xrotation Yrotation Zrotation
		JOINT LeftUpLeg
		{
			OFFSET 18.735201 -5.666702 -4.541200
			CHANNELS 3 Xrotation Yrotation Zrotation
			JOINT LeftLeg
			{
				OFFSET -0.021200 -31.938179 0.493100
				CHANNELS 3 Xrotation Yrotation Zrotation
				JOINT LeftFoot
				{
					OFFSET 0.021200 -31.938179 -4.336299
					CHANNELS 3 Xrotation Yrotation Zrotation
					JOINT LeftToeBase
					{
						OFFSET 0.943001 -26.722000 15.023500
						CHANNELS 3 Xrotation Yrotation Zrotation
						End Site
						{
							OFFSET 0 0 0
						}
					}
				}
			}
		}
	}
	JOINT RightUpLeg_virtual
	{
		OFFSET 0.000000 0.000000 0.000000
		CHANNELS 3 Xrotation Yrotation Zrotation
		JOINT RightUpLeg
		{
			OFFSET -18.735201 -5.666702 -4.541200
			CHANNELS 3 Xrotation Yrotation Zrotation
			JOINT RightLeg
			{
				OFFSET 0.018946 -31.938133 0.493100
				CHANNELS 3 Xrotation Yrotation Zrotation
				JOINT RightFoot
				{
					OFFSET -0.018946 -31.938126 -4.336299
					CHANNELS 3 Xrotation Yrotation Zrotation
					JOINT RightToeBase
					{
						OFFSET -0.943001 -26.722004 15.023500
						CHANNELS 3 Xrotation Yrotation Zrotation
						End Site
						{
							OFFSET 0 0 0
						}
					}
				}
			}
		}
	}
	JOINT Hips_virtual
	{
		OFFSET 0.000000 0.000000 0.000000
		CHANNELS 3 Xrotation Yrotation Zrotation
		JOINT Hips
		{
			OFFSET -0.000000 -0.000000 -0.000000
			CHANNELS 3 Xrotation Yrotation Zrotation
			JOINT Spine
			{
				OFFSET 0.000000 10.199997 -0.299500
				CHANNELS 3 Xrotation Yrotation Zrotation
				JOINT Spine1
				{
					OFFSET 0.000000 11.900002 -1.516600
					CHANNELS 3 Xrotation Yrotation Zrotation
					JOINT Spine2
					{
						OFFSET 0.000000 13.600006 -2.842500
						CHANNELS 3 Xrotation Yrotation Zrotation
						JOINT Neck_virtual
						{
							OFFSET 0.000000 0.000000 0.000000
							CHANNELS 3 Xrotation Yrotation Zrotation
							JOINT Neck
							{
								OFFSET 0.000000 9.624100 -2.890100
								CHANNELS 3 Xrotation Yrotation Zrotation
								JOINT Head
								{
									OFFSET 0.000000 14.068802 -1.351900
									CHANNELS 3 Xrotation Yrotation Zrotation
									End Site
									{
										OFFSET 0 0 0
									}
								}
							}
						}
						JOINT LeftShoulder_virtual
						{
							OFFSET 0.000000 0.000000 0.000000
							CHANNELS 3 Xrotation Yrotation Zrotation
							JOINT LeftShoulder
							{
								OFFSET 15.263000 10.923401 -0.547700
								CHANNELS 3 Xrotation Yrotation Zrotation
								JOINT LeftArm
								{
									OFFSET 25.438599 -2.830597 -13.032500
									CHANNELS 3 Xrotation Yrotation Zrotation
									JOINT LeftForeArm
									{
										OFFSET 29.960503 0.000000 0.000000
										CHANNELS 3 Xrotation Yrotation Zrotation
										JOINT LeftHand
										{
											OFFSET 27.849251 0.000000 0.000000
											CHANNELS 3 Xrotation Yrotation Zrotation
											End Site
											{
												OFFSET 0 0 0
											}
										}
									}
								}
							}
						}
						JOINT RightShoulder_virtual
						{
							OFFSET 0.000000 0.000000 0.000000
							CHANNELS 3 Xrotation Yrotation Zrotation
							JOINT RightShoulder
							{
								OFFSET -15.263000 10.923401 -0.547700
								CHANNELS 3 Xrotation Yrotation Zrotation
								JOINT RightArm
								{
									OFFSET -25.438599 -2.830597 -13.032500
									CHANNELS 3 Xrotation Yrotation Zrotation
									JOINT RightForeArm
									{
										OFFSET -29.960503 0.000000 0.000000
										CHANNELS 3 Xrotation Yrotation Zrotation
										JOINT RightHand
										{
											OFFSET -27.849251 0.000000 0.000000
											CHANNELS 3 Xrotation Yrotation Zrotation
											End Site
											{
												OFFSET 0 0 0
											}
										}
									}
								}
							}
						}
					}
				}
			}
		}
	}
}
MOTION
Frames: 13
Frame Time: 0.03333333
-0.830116 92.320038 4.501392 0.000000 0.000000 0.000000 2.379759 -11.966284 -0.461151 -21.234703 10.714851 16.608056 27.570998 4.095062 2.022433 -6.451900 6.377033 -14.049294 0.000000 0.000000 0.000000 2.379759 -11.966284 -0.461151 -13.011187 -7.720714 -9.182910 25.721178 -4.544716 -1.828095 -13.956429 -1.516228 11.457510 0.000000 0.000000 0.000000 2.379759 -11.966284 -0.461151 0.000000 0.000000 0.000000 9.425507 1.976224 0.384031 2.870546 4.029878 0.917349 0.000000 0.000000 0.000000 -9.001476 3.754922 1.727677 -0.796446 0.375830 -1.407370 0.000000 0.000000 0.000000 -9.001476 3.754922 1.727677 -1.295774 0.077918 -4.827720 -3.652860 -0.069587 -73.007025 -0.000051 -15.717672 -0.000390 0.000000 0.000000 0.000000 -9.001476 3.754922 1.727677 -1.295768 -0.077837 4.827750 3.909177 3.069876 67.997730 -0.000010 18.089259 0.000047 0.000000 0.000000 0.000000 
-0.790959 92.302704 4.515499 0.000000 0.000000 0.000000 2.552448 -12.047410 -0.471120 -21.442742 10.666656 16.622949 27.725375 4.156101 2.031922 -6.551433 6.432365 -14.047945 0.000000 0.000000 0.000000 2.552448 -12.047410 -0.471120 -13.180549 -7.710472 -9.171562 25.636022 -4.505716 -1.822256 -13.871563 -1.481698 11.474671 0.000000 0.000000 0.000000 2.552448 -12.047410 -0.471120 0.000000 -0.000001 0.000000 9.400891 1.893162 0.402157 2.806026 4.034561 0.910478 0.000000 0.000000 0.000000 -9.063600 3.756301 1.734032 -0.850255 0.295864 -1.560322 0.000000 0.000000 0.000000 -9.063600 3.756301 1.734032 -1.298115 0.155753 -4.850347 -3.189655 0.061113 -72.936749 -0.000015 -16.015506 -0.000184 0.000000 0.000000 0.000000 -9.063600 3.756301 1.734032 -1.275742 -0.132167 4.800657 4.101212 3.268592 67.974480 0.000926 18.208670 -0.000168 0.000000 0.000000 0.000000 
-0.665420 92.278824 4.528374 0.000000 0.000000 0.000000 2.726821 -12.099832 -0.480163 -21.736727 10.618824 16.572696 28.013606 4.209070 2.045012 -6.725812 6.477598 -13.969707 0.000000 0.000000 0.000000 2.726821 -12.099832 -0.480163 -13.355106 -7.684055 -9.233068 25.527175 -4.477390 -1.815721 -13.745288 -1.463773 11.564431 0.000000 0.000000 0.000000 2.726821 -12.099832 -0.480163 0.000000 -0.000001 0.000000 9.397765 1.791524 0.441536 2.763054 4.049153 0.909946 0.000000 0.000000 0.000000 -9.100127 3.757395 1.768804 -0.898713 0.228103 -1.742677 0.000000 0.000000 0.000000 -9.100127 3.757395 1.768804 -1.303886 0.333882 -4.902910 -3.050627 0.056953 -72.883330 -0.000016 -15.382365 -0.000256 0.000000 0.000000 0.000000 -9.100127 3.757395 1.768804 -1.219722 -0.284617 4.724592 4.623790 3.807455 67.911806 0.003489 18.543421 -0.000424 0.000000 0.000000 0.000000 
-0.463217 92.249008 4.540472 0.000000 0.000000 0.000000 2.902143 -12.135825 -0.488304 -22.099762 10.574266 16.464982 28.416039 4.259535 2.060271 -6.967071 6.517138 -13.824589 0.000000 0.000000 0.000000 2.902143 -12.135825 -0.488304 -13.536814 -7.642206 -9.361546 25.395820 -4.452992 -1.807085 -13.579082 -1.456603 11.717509 0.000000 0.000000 0.000000 2.902143 -12.135825 -0.488304 0.000000 0.000000 0.000000 9.416619 1.677018 0.495461 2.745823 4.068236 0.905525 0.000000 0.000000 0.000000 -9.107703 3.755930 1.814802 -0.973577 0.163780 -1.893207 0.000000 0.000000 0.000000 -9.107703 3.755930 1.814802 -1.311608 0.529196 -4.962479 -2.922619 0.021942 -72.895706 0.000045 -14.822130 -0.000233 0.000000 0.000000 0.000000 -9.107703 3.755930 1.814802 -1.134008 -0.519547 4.607378 5.397550 4.600121 67.820398 0.007692 19.058810 -0.000930 0.000000 0.000000 0.000000 
-0.194030 92.214256 4.552191 0.000000 0.000000 0.000000 3.077708 -12.167707 -0.495477 -22.513729 10.536854 16.305526 28.910715 4.313823 2.077701 -7.266493 6.555178 -13.622197 0.000000 0.000000 0.000000 3.077708 -12.167707 -0.495477 -13.726063 -7.586312 -9.550058 25.240368 -4.425793 -1.794618 -13.373326 -1.453755 11.923432 0.000000 0.000000 0.000000 3.077708 -12.167707 -0.495477 0.000000 0.000000 0.000000 9.448724 1.551281 0.557666 2.744153 4.087134 0.891779 0.000000 0.000000 0.000000 -9.097144 3.749333 1.859648 -1.062566 0.075155 -1.987834 0.000000 0.000000 0.000000 -9.097144 3.749333 1.859648 -1.329870 0.782993 -5.049402 -2.831412 -0.014491 -72.803048 -0.000012 -14.409221 -0.000561 0.000000 0.000000 0.000000 -9.097144 3.749333 1.859648 -1.025136 -0.821263 4.456892 6.342766 5.560421 67.711101 0.013338 19.719943 -0.001481 0.000000 0.000000 0.000000 
0.132423 92.175339 4.563976 0.000000 0.000000 0.000000 3.252820 -12.207763 -0.501535 -22.961095 10.510001 16.100807 29.476344 4.378013 2.097770 -7.615191 6.596275 -13.373254 0.000000 0.000000 0.000000 3.252820 -12.207763 -0.501535 -13.923680 -7.517715 -9.792201 25.059652 -4.388940 -1.776670 -13.128366 -1.449274 12.172413 0.000000 0.000000 0.000000 3.252820 -12.207763 -0.501535 0.000000 0.000000 0.000000 9.489418 1.408864 0.621020 2.752583 4.100424 0.858748 0.000000 0.000000 0.000000 -9.074628 3.735210 1.886389 -1.161351 -0.060902 -2.004854 0.000000 0.000000 0.000000 -9.074628 3.735210 1.886389 -1.352837 1.082994 -5.152938 -2.503506 0.039098 -72.652285 -0.000055 -14.559257 -0.001083 0.000000 0.000000 0.000000 -9.074628 3.735210 1.886389 -0.899492 -1.174162 4.280980 7.378352 6.602950 67.593560 0.020347 20.492178 -0.002601 0.000000 0.000000 0.000000 
0.506450 92.133133 4.576284 0.000000 0.000000 0.000000 3.426785 -12.268282 -0.506277 -23.424253 10.496772 15.857140 30.092017 4.458523 2.120315 -8.004868 6.645012 -13.087802 0.000000 0.000000 0.000000 3.426785 -12.268282 -0.506277 -14.130253 -7.438050 -10.080727 24.851628 -4.335655 -1.752039 -12.844257 -1.436761 12.454398 0.000000 0.000000 0.000000 3.426785 -12.268282 -0.506277 0.000000 0.000000 0.000000 9.536493 1.239231 0.680024 2.771591 4.102793 0.797748 0.000000 0.000000 0.000000 -9.040357 3.710990 1.879356 -1.281145 -0.255752 -1.934500 0.000000 0.000000 0.000000 -9.040357 3.710990 1.879356 -1.379878 1.427033 -5.266674 -1.797356 0.223785 -72.428371 -0.000065 -15.538636 -0.001023 0.000000 0.000000 0.000000 -9.040357 3.710990 1.879356 -0.763341 -1.562538 4.087423 8.421357 7.643041 67.475582 0.028686 21.340573 -0.004011 0.000000 0.000000 0.000000 
0.918360 92.088371 4.589548 0.000000 0.000000 0.000000 3.598938 -12.361581 -0.509411 -23.886987 10.499252 15.581924 30.738798 4.561369 2.144876 -8.427808 6.706094 -12.776563 0.000000 0.000000 0.000000 3.598938 -12.361581 -0.509411 -14.346648 -7.348893 -10.408282 24.614156 -4.259396 -1.720222 -12.520896 -1.410109 12.760175 0.000000 0.000000 0.000000 3.598938 -12.361581 -0.509411 0.000000 0.000001 0.000000 9.589779 1.028740 0.733069 2.805340 4.089841 0.706637 0.000000 0.000000 0.000000 -8.991007 3.673631 1.829488 -1.430075 -0.503083 -1.784706 0.000000 0.000000 0.000000 -8.991007 3.673631 1.829488 -1.411123 1.809413 -5.382576 -0.819709 0.465269 -72.133963 -0.000198 -17.049421 -0.001451 0.000000 0.000000 0.000000 -8.991007 3.673631 1.829488 -0.622517 -1.970495 3.883904 9.387303 8.596388 67.362372 0.038107 22.230319 -0.005877 0.000000 0.000000 0.000000 
1.358447 92.042023 4.601221 0.000000 0.000000 0.000000 3.768617 -12.499935 -0.510570 -24.336114 10.518100 15.282506 31.398523 4.692916 2.171035 -8.874116 6.784285 -12.449829 0.000000 0.000000 0.000000 3.768617 -12.499935 -0.510570 -14.577669 -7.251433 -10.766133 24.347044 -4.154246 -1.681663 -12.156725 -1.362824 13.079847 0.000000 0.000000 0.000000 3.768617 -12.499935 -0.510570 0.000000 0.000000 0.000000 9.648853 0.766205 0.782780 2.857021 4.058611 0.592155 0.000000 0.000000 0.000000 -8.924200 3.619593 1.736730 -1.615294 -0.784417 -1.579524 0.000000 0.000000 0.000000 -8.924200 3.619593 1.736730 -1.447361 2.218799 -5.493603 0.239043 0.690575 -71.789386 -0.005061 -18.621720 -0.003224 0.000000 0.000000 0.000000 -8.924200 3.619593 1.736730 -0.482534 -2.382199 3.677866 10.190826 9.378889 67.257330 0.048519 23.126566 -0.007909 0.000000 0.000000 0.000000 
1.817021 91.994965 4.608454 0.000000 0.000000 0.000000 3.935193 -12.695668 -0.509330 -24.760809 10.552849 14.966712 32.056356 4.859447 2.198241 -9.334981 6.884770 -12.118087 0.000000 0.000000 0.000000 3.935193 -12.695668 -0.509330 -14.830089 -7.146825 -11.144932 24.052491 -4.014187 -1.637409 -11.750988 -1.288600 13.403536 0.000000 0.000000 0.000000 3.935193 -12.695668 -0.509330 0.000000 0.000000 0.000000 9.710550 0.444694 0.835053 2.924888 4.007470 0.468973 0.000000 0.000000 0.000000 -8.842545 3.544960 1.609074 -1.833214 -1.086932 -1.356097 0.000000 0.000000 0.000000 -8.842545 3.544960 1.609074 -1.489031 2.638545 -5.596108 1.385399 0.895198 -71.417694 -0.010303 -20.195105 -0.005181 0.000000 0.000000 0.000000 -8.842545 3.544960 1.609074 -0.348374 -2.781496 3.476709 10.745657 9.906271 67.162295 0.059859 23.994559 -0.010261 0.000000 0.000000 0.000000 
2.284404 91.948013 4.611259 0.000000 0.000000 0.000000 4.098043 -12.961080 -0.505199 -25.148601 10.602662 14.642309 32.699223 5.066951 2.225937 -9.804850 7.013162 -11.792633 0.000000 0.000000 0.000000 4.098043 -12.961080 -0.505199 -15.106739 -7.036075 -11.535303 23.729342 -3.833853 -1.589072 -11.303545 -1.181315 13.723217 0.000000 0.000000 0.000000 4.098043 -12.961080 -0.505199 0.000000 0.000000 0.000000 9.769171 0.062160 0.897141 3.001499 3.935650 0.356472 0.000000 0.000000 0.000000 -8.754303 3.445724 1.459262 -2.069251 -1.396982 -1.153793 0.000000 0.000000 0.000000 -8.754303 3.445724 1.459262 -1.581238 3.167146 -5.907156 2.666156 0.976666 -70.824786 -0.015819 -21.663984 -0.007271 0.000000 0.000000 0.000000 -8.754303 3.445724 1.459262 -0.224679 -3.152258 3.287671 10.964881 10.094637 67.079151 0.071982 24.799370 -0.012973 0.000000 0.000000 0.000000 
2.751283 91.899246 4.609955 0.000000 0.000000 0.000000 4.259767 -13.304560 -0.500063 -25.502176 10.661942 14.321249 33.333140 5.318987 2.254134 -10.286209 7.174783 -11.485262 0.000000 0.000000 0.000000 4.259767 -13.304560 -0.500063 -15.416707 -6.920129 -11.925213 23.387162 -3.609844 -1.538396 -10.820731 -1.037398 14.032021 0.000000 0.000000 0.000000 4.259767 -13.304560 -0.500063 0.000000 0.000000 0.000000 9.827032 -0.247629 0.961149 3.089903 3.801836 0.268997 0.000000 0.000000 0.000000 -8.654121 3.278383 1.306860 -2.329318 -1.692089 -0.997045 0.000000 0.000000 0.000000 -8.654121 3.278383 1.306860 -1.616542 3.520103 -5.927645 3.979545 1.191367 -70.561885 -0.021583 -23.127463 -0.009779 0.000000 0.000000 0.000000 -8.654121 3.278383 1.306860 -0.100413 -3.531010 3.094441 10.908254 10.303817 66.959705 0.084726 25.588609 -0.016124 0.000000 0.000000 0.000000 
3.209595 91.846405 4.605103 0.000000 0.000000 0.000000 4.422843 -13.718478 -0.495483 -25.831758 10.724142 14.013427 33.965120 5.610441 2.282366 -10.778268 7.367660 -11.202853 0.000000 0.000000 0.000000 4.422843 -13.718478 -0.495483 -15.763214 -6.799896 -12.302669 23.039379 -3.348209 -1.487730 -10.314929 -0.860934 14.325961 0.000000 0.000000 0.000000 4.422843 -13.718478 -0.495483 0.000000 0.000001 0.000000 9.889118 -0.367327 1.018716 3.194904 3.574257 0.211800 0.000000 0.000000 0.000000 -8.534852 3.010133 1.168258 -2.620248 -1.951170 -0.895940 0.000000 0.000000 0.000000 -8.534852 3.010133 1.168258 -1.663940 3.854158 -5.997687 5.413374 1.419228 -70.312515 -0.027526 -24.706546 -0.012410 0.000000 0.000000 0.000000 -8.534852 3.010133 1.168258 0.035353 -3.957983 2.879416 10.705420 10.907076 66.767176 0.098145 26.429152 -0.020015 0.000000 0.000000 0.000000 
